Coordinates
version=1
nRows=10
nColumns=40
inDegrees=yes

Units are S.I. units (second, meters, Newtons, ...)
Angles are in degrees.

endheader
time	pelvis_tilt	pelvis_list	pelvis_rotation	pelvis_tx	pelvis_ty	pelvis_tz	hip_flexion_r	hip_adduction_r	hip_rotation_r	knee_angle_r	knee_angle_r_beta	ankle_angle_r	subtalar_angle_r	mtp_angle_r	hip_flexion_l	hip_adduction_l	hip_rotation_l	knee_angle_l	knee_angle_l_beta	ankle_angle_l	subtalar_angle_l	mtp_angle_l	lumbar_extension	lumbar_bending	lumbar_rotation	arm_flex_r	arm_add_r	arm_rot_r	elbow_flex_r	pro_sup_r	wrist_flex_r	wrist_dev_r	arm_flex_l	arm_add_l	arm_rot_l	elbow_flex_l	pro_sup_l	wrist_flex_l	wrist_dev_l
     46.05000000	     -6.50771922	     -4.39773053	      7.38519111	      1.13982789	      0.92091021	      0.49668685	      3.30611134	      1.52081612	    -13.31546494	     15.39896068	     15.39896068	     17.66263898	     -1.28630478	     -2.11569747	     27.74461657	     -6.09510914	      2.44656393	     23.67172111	     23.67172111	      5.01713107	    -12.72648167	      1.87566810	     -8.45171377	      3.39864281	      4.55605216	     64.22124935	    -18.86979486	     -1.88166378	     77.30044005	     44.72506202	      0.00000000	      0.00000000	    -10.27931683	    -13.23924501	     23.26443733	     32.92059433	     42.53008498	      0.00000000	      0.00000000
     46.07257143	     -6.67959153	     -4.37496841	      6.95308881	      1.14047799	      0.92151740	      0.49109454	      2.92156197	      1.01992859	    -13.64615029	     15.05379705	     15.05379705	     17.37772962	      0.01740645	     -2.34055976	     27.59255715	     -5.85616003	      2.09430102	     24.00371785	     24.00371785	      5.74292202	    -12.78417802	      2.76930051	     -8.35906331	      3.46148393	      4.64059629	     64.07811535	    -18.67267642	     -2.17806165	     75.95784891	     44.79611585	      0.00000000	      0.00000000	     -9.08111056	    -13.67845663	     22.93716938	     33.18544258	     42.66617426	      0.00000000	      0.00000000
     46.09514286	     -6.88579497	     -4.38301481	      6.49408680	      1.14099895	      0.92199696	      0.48552638	      2.66332426	      0.55105111	    -13.80884142	     14.82506897	     14.82506897	     17.11642186	      1.06442454	     -2.36931816	     27.50976339	     -5.66683524	      1.66684538	     24.39030195	     24.39030195	      6.68488726	    -12.69267137	      4.01230040	     -8.22106636	      3.57648443	      4.41968828	     63.88186405	    -18.00164319	     -2.58772841	     74.18529793	     44.90348654	      0.00000000	      0.00000000	     -7.99616028	    -14.02519022	     22.46150513	     33.33856004	     42.91603041	      0.00000000	      0.00000000
     46.11771429	     -7.05317810	     -4.42715720	      6.05918827	      1.14139110	      0.92244213	      0.47996184	      2.48101670	      0.17268139	    -13.58702710	     14.74158167	     14.74158167	     16.82926806	      1.37358617	     -2.25451500	     27.31675581	     -5.49290458	      1.31832456	     24.57368479	     24.57368479	      7.01681739	    -12.91557310	      3.90938505	     -8.18900664	      3.74727630	      4.27681761	     63.18670643	    -17.78350869	     -2.50185287	     73.75795298	     44.91320890	      0.00000000	      0.00000000	     -6.74021926	    -14.46317398	     22.27732787	     33.65223407	     42.96328232	      0.00000000	      0.00000000
     46.14028571	     -7.13366892	     -4.43540817	      5.57361114	      1.14188913	      0.92306818	      0.47436369	      2.15921869	     -0.30279631	    -13.72605459	     14.58210023	     14.58210023	     16.59456759	      2.47755492	     -2.04731440	     26.94320432	     -5.35315443	      0.73445551	     24.65462392	     24.65462392	      7.53209259	    -12.74578709	      3.89420691	     -8.14425042	      3.84588958	      4.72976896	     62.26363108	    -18.21585801	     -3.05711789	     71.81342460	     45.00100760	      0.00000000	      0.00000000	     -5.09728256	    -14.81422319	     21.97817043	     34.00181360	     43.06240383	      0.00000000	      0.00000000
     46.16285714	     -7.22548247	     -4.43488977	      5.06791333	      1.14224091	      0.92351928	      0.46896822	      2.12177080	     -0.82794953	    -13.78842601	     14.89099172	     14.89099172	     16.46111970	      3.28720302	     -1.82720731	     26.59732501	     -5.21197135	      0.14058743	     24.74805444	     24.74805444	      8.11071027	    -12.66929184	      3.87633658	     -8.09944972	      3.90124599	      4.76907750	     61.08483071	    -18.00870315	     -3.54425120	     69.94221150	     45.08244644	      0.00000000	      0.00000000	     -3.46862259	    -15.10847286	     21.78417500	     34.08413837	     43.15010656	      0.00000000	      0.00000000
     46.18542857	     -7.25608611	     -4.46146534	      4.56257031	      1.14252892	      0.92404050	      0.46356234	      2.23834906	     -1.35844554	    -13.69344743	     15.57122597	     15.57122597	     16.34989611	      3.87727770	     -1.61174932	     26.19919180	     -5.09300383	     -0.42448099	     24.84098340	     24.84098340	      8.62432083	    -12.59808681	      3.93345562	     -8.07913942	      4.06008805	      4.69453154	     59.74757159	    -17.70714634	     -4.19056429	     67.77103749	     45.17928066	      0.00000000	      0.00000000	     -1.70112277	    -15.30680153	     21.63016663	     34.01241702	     43.24183792	      0.00000000	      0.00000000
     46.20800000	     -7.22401558	     -4.53064904	      4.06937589	      1.14279617	      0.92465585	      0.45829355	      2.48443940	     -1.84822539	    -13.47606493	     16.57002571	     16.57002571	     16.17889440	      4.12473861	     -1.32006387	     25.73947081	     -5.00263110	     -0.89276097	     24.93266515	     24.93266515	      9.29966966	    -12.54473979	      4.29763822	     -8.08625052	      4.25665988	      4.35659586	     58.35896513	    -16.69791911	     -5.42393520	     64.68492438	     45.33370066	      0.00000000	      0.00000000	      0.22037427	    -15.36425453	     21.55842482	     33.19966826	     43.39938170	      0.00000000	      0.00000000
     46.23057143	     -7.07812356	     -4.60040789	      3.58064503	      1.14312863	      0.92524597	      0.45313154	      2.99311118	     -2.38064315	    -13.04824261	     18.26116311	     18.26116311	     15.85889485	      3.85101030	     -1.71020127	     25.16763323	     -4.91524829	     -1.32853972	     25.03441911	     25.03441911	      9.81602577	    -12.65723014	      4.22253913	     -8.20768897	      4.44642449	      4.25444551	     56.08751739	    -16.59378016	     -5.60868793	     63.03222128	     45.38837488	      0.00000000	      0.00000000	      2.03670404	    -15.57302218	     21.35231495	     33.55095904	     43.47740900	      0.00000000	      0.00000000
     46.25314286	     -6.88222335	     -4.68590540	      3.09585190	      1.14335177	      0.92582791	      0.44808071	      3.81209810	     -2.88786469	    -12.26285141	     20.54273026	     20.54273026	     14.96731862	      2.66322430	     -3.57567945	     24.60904939	     -4.82873895	     -1.69028207	     25.23729800	     25.23729800	     10.49103018	    -12.77227446	      4.65419202	     -8.27639886	      4.69310677	      4.14091035	     54.02774951	    -15.96515258	     -7.06424573	     59.39881607	     45.56263217	      0.00000000	      0.00000000	      4.33844365	    -15.46319173	     21.36933330	     32.55979410	     43.62576467	      0.00000000	      0.00000000
